<svg width="827" height="444" viewBox="0 0 827 444" fill="none" xmlns="http://www.w3.org/2000/svg">
<rect y="7" width="827" height="437" fill="#FF9900"/>
<ellipse cx="189.5" cy="123.5" rx="19.5" ry="17.5" fill="#FF9F47"/>
<ellipse cx="368.5" cy="207.5" rx="19.5" ry="17.5" fill="#FF9F47"/>
<ellipse cx="116.5" cy="207.5" rx="19.5" ry="17.5" fill="#FF9F47"/>
<ellipse cx="387.5" cy="388.5" rx="19.5" ry="17.5" fill="#FF9F47"/>
<ellipse cx="539.5" cy="58" rx="40.5" ry="35" fill="#FF9F47"/>
<ellipse cx="57.5" cy="75.5" rx="19.5" ry="17.5" fill="#FF9F47"/>
<ellipse cx="726.5" cy="207.5" rx="37.5" ry="31.5" fill="#FF9F47"/>
<ellipse cx="738.5" cy="52.5" rx="19.5" ry="17.5" fill="#FF9F47"/>
<ellipse cx="103" cy="363.5" rx="46" ry="37.5" fill="#FF9F47"/>
<ellipse cx="693.5" cy="370.5" rx="30.5" ry="25.5" fill="#FF9F47"/>
<ellipse cx="473.5" cy="294.5" rx="19.5" ry="17.5" fill="#FF9F47"/>
<ellipse cx="568.5" cy="186.5" rx="30.5" ry="28.5" fill="#FF9F47"/>
<ellipse cx="278.5" cy="284.5" rx="30.5" ry="27.5" fill="#FF9F47"/>
<ellipse cx="338.5" cy="106" rx="29.5" ry="31" fill="#FF9F47"/>
<path d="M727.448 422.32C727.245 421.947 726.952 421.664 726.568 421.472C726.195 421.269 725.752 421.168 725.24 421.168C724.355 421.168 723.645 421.461 723.112 422.048C722.579 422.624 722.312 423.397 722.312 424.368C722.312 425.403 722.589 426.213 723.144 426.8C723.709 427.376 724.483 427.664 725.464 427.664C726.136 427.664 726.701 427.493 727.16 427.152C727.629 426.811 727.971 426.32 728.184 425.68H724.712V423.664H730.664V426.208C730.461 426.891 730.115 427.525 729.624 428.112C729.144 428.699 728.531 429.173 727.784 429.536C727.037 429.899 726.195 430.08 725.256 430.08C724.147 430.08 723.155 429.84 722.28 429.36C721.416 428.869 720.739 428.192 720.248 427.328C719.768 426.464 719.528 425.477 719.528 424.368C719.528 423.259 719.768 422.272 720.248 421.408C720.739 420.533 721.416 419.856 722.28 419.376C723.144 418.885 724.131 418.64 725.24 418.64C726.584 418.64 727.715 418.965 728.632 419.616C729.56 420.267 730.173 421.168 730.472 422.32H727.448ZM731.636 425.52C731.636 424.603 731.806 423.797 732.148 423.104C732.5 422.411 732.974 421.877 733.572 421.504C734.169 421.131 734.836 420.944 735.572 420.944C736.201 420.944 736.75 421.072 737.22 421.328C737.7 421.584 738.068 421.92 738.324 422.336V421.072H741.06V430H738.324V428.736C738.057 429.152 737.684 429.488 737.204 429.744C736.734 430 736.185 430.128 735.556 430.128C734.83 430.128 734.169 429.941 733.572 429.568C732.974 429.184 732.5 428.645 732.148 427.952C731.806 427.248 731.636 426.437 731.636 425.52ZM738.324 425.536C738.324 424.853 738.132 424.315 737.748 423.92C737.374 423.525 736.916 423.328 736.372 423.328C735.828 423.328 735.364 423.525 734.98 423.92C734.606 424.304 734.42 424.837 734.42 425.52C734.42 426.203 734.606 426.747 734.98 427.152C735.364 427.547 735.828 427.744 736.372 427.744C736.916 427.744 737.374 427.547 737.748 427.152C738.132 426.757 738.324 426.219 738.324 425.536ZM745.775 422.336C746.042 421.92 746.41 421.584 746.879 421.328C747.348 421.072 747.898 420.944 748.527 420.944C749.263 420.944 749.93 421.131 750.527 421.504C751.124 421.877 751.594 422.411 751.935 423.104C752.287 423.797 752.463 424.603 752.463 425.52C752.463 426.437 752.287 427.248 751.935 427.952C751.594 428.645 751.124 429.184 750.527 429.568C749.93 429.941 749.263 430.128 748.527 430.128C747.908 430.128 747.359 430 746.879 429.744C746.41 429.488 746.042 429.157 745.775 428.752V434.256H743.039V421.072H745.775V422.336ZM749.679 425.52C749.679 424.837 749.487 424.304 749.103 423.92C748.73 423.525 748.266 423.328 747.711 423.328C747.167 423.328 746.703 423.525 746.319 423.92C745.946 424.315 745.759 424.853 745.759 425.536C745.759 426.219 745.946 426.757 746.319 427.152C746.703 427.547 747.167 427.744 747.711 427.744C748.255 427.744 748.719 427.547 749.103 427.152C749.487 426.747 749.679 426.203 749.679 425.52ZM753.354 425.52C753.354 424.603 753.525 423.797 753.866 423.104C754.218 422.411 754.693 421.877 755.29 421.504C755.888 421.131 756.554 420.944 757.29 420.944C757.92 420.944 758.469 421.072 758.938 421.328C759.418 421.584 759.786 421.92 760.042 422.336V421.072H762.778V430H760.042V428.736C759.776 429.152 759.402 429.488 758.922 429.744C758.453 430 757.904 430.128 757.274 430.128C756.549 430.128 755.888 429.941 755.29 429.568C754.693 429.184 754.218 428.645 753.866 427.952C753.525 427.248 753.354 426.437 753.354 425.52ZM760.042 425.536C760.042 424.853 759.85 424.315 759.466 423.92C759.093 423.525 758.634 423.328 758.09 423.328C757.546 423.328 757.082 423.525 756.698 423.92C756.325 424.304 756.138 424.837 756.138 425.52C756.138 426.203 756.325 426.747 756.698 427.152C757.082 427.547 757.546 427.744 758.09 427.744C758.634 427.744 759.093 427.547 759.466 427.152C759.85 426.757 760.042 426.219 760.042 425.536ZM766.134 420.144C765.654 420.144 765.259 420.005 764.95 419.728C764.651 419.44 764.502 419.088 764.502 418.672C764.502 418.245 764.651 417.893 764.95 417.616C765.259 417.328 765.654 417.184 766.134 417.184C766.603 417.184 766.987 417.328 767.286 417.616C767.595 417.893 767.75 418.245 767.75 418.672C767.75 419.088 767.595 419.44 767.286 419.728C766.987 420.005 766.603 420.144 766.134 420.144ZM767.494 421.072V430H764.758V421.072H767.494ZM777.556 418.768V420.96H774.58V430H771.844V420.96H768.868V418.768H777.556ZM787.345 425.392C787.345 425.648 787.33 425.915 787.298 426.192H781.106C781.148 426.747 781.324 427.173 781.634 427.472C781.954 427.76 782.343 427.904 782.802 427.904C783.484 427.904 783.959 427.616 784.226 427.04H787.138C786.988 427.627 786.716 428.155 786.322 428.624C785.938 429.093 785.452 429.461 784.866 429.728C784.279 429.995 783.623 430.128 782.898 430.128C782.023 430.128 781.244 429.941 780.562 429.568C779.879 429.195 779.346 428.661 778.962 427.968C778.578 427.275 778.386 426.464 778.386 425.536C778.386 424.608 778.572 423.797 778.946 423.104C779.33 422.411 779.863 421.877 780.546 421.504C781.228 421.131 782.012 420.944 782.898 420.944C783.762 420.944 784.53 421.125 785.202 421.488C785.874 421.851 786.396 422.368 786.77 423.04C787.154 423.712 787.345 424.496 787.345 425.392ZM784.546 424.672C784.546 424.203 784.386 423.829 784.066 423.552C783.746 423.275 783.346 423.136 782.866 423.136C782.407 423.136 782.018 423.269 781.698 423.536C781.388 423.803 781.196 424.181 781.122 424.672H784.546ZM788.245 425.536C788.245 424.608 788.432 423.797 788.805 423.104C789.189 422.411 789.717 421.877 790.389 421.504C791.072 421.131 791.85 420.944 792.725 420.944C793.845 420.944 794.778 421.237 795.525 421.824C796.282 422.411 796.778 423.237 797.013 424.304H794.101C793.856 423.621 793.381 423.28 792.677 423.28C792.176 423.28 791.776 423.477 791.477 423.872C791.178 424.256 791.029 424.811 791.029 425.536C791.029 426.261 791.178 426.821 791.477 427.216C791.776 427.6 792.176 427.792 792.677 427.792C793.381 427.792 793.856 427.451 794.101 426.768H797.013C796.778 427.813 796.282 428.635 795.525 429.232C794.768 429.829 793.834 430.128 792.725 430.128C791.85 430.128 791.072 429.941 790.389 429.568C789.717 429.195 789.189 428.661 788.805 427.968C788.432 427.275 788.245 426.464 788.245 425.536ZM803.964 420.976C804.988 420.976 805.81 421.317 806.428 422C807.047 422.672 807.356 423.6 807.356 424.784V430H804.636V425.152C804.636 424.555 804.482 424.091 804.172 423.76C803.863 423.429 803.447 423.264 802.924 423.264C802.402 423.264 801.986 423.429 801.676 423.76C801.367 424.091 801.212 424.555 801.212 425.152V430H798.476V418.16H801.212V422.272C801.49 421.877 801.868 421.563 802.348 421.328C802.828 421.093 803.367 420.976 803.964 420.976Z" fill="white"/>
<path d="M297.952 241.048H285.376L283.36 247H274.768L286.96 213.304H296.464L308.656 247H299.968L297.952 241.048ZM295.84 234.712L291.664 222.376L287.536 234.712H295.84ZM320.575 224.008C321.375 222.76 322.479 221.752 323.887 220.984C325.295 220.216 326.943 219.832 328.831 219.832C331.039 219.832 333.039 220.392 334.831 221.512C336.623 222.632 338.031 224.232 339.055 226.312C340.111 228.392 340.639 230.808 340.639 233.56C340.639 236.312 340.111 238.744 339.055 240.856C338.031 242.936 336.623 244.552 334.831 245.704C333.039 246.824 331.039 247.384 328.831 247.384C326.975 247.384 325.327 247 323.887 246.232C322.479 245.464 321.375 244.472 320.575 243.256V259.768H312.367V220.216H320.575V224.008ZM332.287 233.56C332.287 231.512 331.711 229.912 330.559 228.76C329.439 227.576 328.047 226.984 326.383 226.984C324.751 226.984 323.359 227.576 322.207 228.76C321.087 229.944 320.527 231.56 320.527 233.608C320.527 235.656 321.087 237.272 322.207 238.456C323.359 239.64 324.751 240.232 326.383 240.232C328.015 240.232 329.407 239.64 330.559 238.456C331.711 237.24 332.287 235.608 332.287 233.56ZM343.313 233.56C343.313 230.808 343.825 228.392 344.849 226.312C345.905 224.232 347.329 222.632 349.121 221.512C350.913 220.392 352.913 219.832 355.121 219.832C357.009 219.832 358.657 220.216 360.065 220.984C361.505 221.752 362.609 222.76 363.377 224.008V220.216H371.585V247H363.377V243.208C362.577 244.456 361.457 245.464 360.017 246.232C358.609 247 356.961 247.384 355.073 247.384C352.897 247.384 350.913 246.824 349.121 245.704C347.329 244.552 345.905 242.936 344.849 240.856C343.825 238.744 343.313 236.312 343.313 233.56ZM363.377 233.608C363.377 231.56 362.801 229.944 361.649 228.76C360.529 227.576 359.153 226.984 357.521 226.984C355.889 226.984 354.497 227.576 353.345 228.76C352.225 229.912 351.665 231.512 351.665 233.56C351.665 235.608 352.225 237.24 353.345 238.456C354.497 239.64 355.889 240.232 357.521 240.232C359.153 240.232 360.529 239.64 361.649 238.456C362.801 237.272 363.377 235.656 363.377 233.608ZM395.903 213.304V247H387.695V213.304H395.903ZM416.779 240.04V247H412.603C409.627 247 407.307 246.28 405.643 244.84C403.979 243.368 403.147 240.984 403.147 237.688V227.032H399.883V220.216H403.147V213.688H411.355V220.216H416.731V227.032H411.355V237.784C411.355 238.584 411.547 239.16 411.931 239.512C412.315 239.864 412.955 240.04 413.851 240.04H416.779ZM447.799 220.216V247H439.591V243.352C438.759 244.536 437.623 245.496 436.183 246.232C434.775 246.936 433.207 247.288 431.479 247.288C429.431 247.288 427.623 246.84 426.055 245.944C424.487 245.016 423.271 243.688 422.407 241.96C421.543 240.232 421.111 238.2 421.111 235.864V220.216H429.271V234.76C429.271 236.552 429.735 237.944 430.663 238.936C431.591 239.928 432.839 240.424 434.407 240.424C436.007 240.424 437.271 239.928 438.199 238.936C439.127 237.944 439.591 236.552 439.591 234.76V220.216H447.799ZM493.051 213.304V247H484.843V233.128H472.075V247H463.867V213.304H472.075V226.504H484.843V213.304H493.051ZM513.904 240.04V247H509.728C506.752 247 504.432 246.28 502.768 244.84C501.104 243.368 500.272 240.984 500.272 237.688V227.032H497.008V220.216H500.272V213.688H508.48V220.216H513.856V227.032H508.48V237.784C508.48 238.584 508.672 239.16 509.056 239.512C509.44 239.864 510.08 240.04 510.976 240.04H513.904ZM552.652 219.928C555.98 219.928 558.62 220.936 560.572 222.952C562.556 224.968 563.548 227.768 563.548 231.352V247H555.388V232.456C555.388 230.728 554.924 229.4 553.996 228.472C553.1 227.512 551.852 227.032 550.252 227.032C548.652 227.032 547.388 227.512 546.46 228.472C545.564 229.4 545.116 230.728 545.116 232.456V247H536.956V232.456C536.956 230.728 536.492 229.4 535.564 228.472C534.668 227.512 533.42 227.032 531.82 227.032C530.22 227.032 528.956 227.512 528.028 228.472C527.132 229.4 526.684 230.728 526.684 232.456V247H518.476V220.216H526.684V223.576C527.516 222.456 528.604 221.576 529.948 220.936C531.292 220.264 532.812 219.928 534.508 219.928C536.524 219.928 538.316 220.36 539.884 221.224C541.484 222.088 542.732 223.32 543.628 224.92C544.556 223.448 545.82 222.248 547.42 221.32C549.02 220.392 550.764 219.928 552.652 219.928ZM577.497 211.48V247H569.289V211.48H577.497Z" fill="black"/>
<path d="M394.16 154.304V188H385.952V174.128H373.184V188H364.976V154.304H373.184V167.504H385.952V154.304H394.16ZM424.325 154.304V160.88H415.397V188H407.189V160.88H398.261V154.304H424.325ZM466.605 154.304V188H458.397V167.792L450.861 188H444.237L436.653 167.744V188H428.445V154.304H438.141L447.597 177.632L456.957 154.304H466.605ZM480.715 181.664H491.467V188H472.507V154.304H480.715V181.664Z" fill="black"/>
<path d="M284.746 279.432C284.746 280.164 284.578 280.836 284.242 281.448C283.906 282.048 283.39 282.534 282.694 282.906C281.998 283.278 281.134 283.464 280.102 283.464H278.194V288H275.116V275.364H280.102C281.11 275.364 281.962 275.538 282.658 275.886C283.354 276.234 283.876 276.714 284.224 277.326C284.572 277.938 284.746 278.64 284.746 279.432ZM279.868 281.016C280.456 281.016 280.894 280.878 281.182 280.602C281.47 280.326 281.614 279.936 281.614 279.432C281.614 278.928 281.47 278.538 281.182 278.262C280.894 277.986 280.456 277.848 279.868 277.848H278.194V281.016H279.868ZM295.816 282.816C295.816 283.104 295.798 283.404 295.762 283.716H288.796C288.844 284.34 289.042 284.82 289.39 285.156C289.75 285.48 290.188 285.642 290.704 285.642C291.472 285.642 292.006 285.318 292.306 284.67H295.582C295.414 285.33 295.108 285.924 294.664 286.452C294.232 286.98 293.686 287.394 293.026 287.694C292.366 287.994 291.628 288.144 290.812 288.144C289.828 288.144 288.952 287.934 288.184 287.514C287.416 287.094 286.816 286.494 286.384 285.714C285.952 284.934 285.736 284.022 285.736 282.978C285.736 281.934 285.946 281.022 286.366 280.242C286.798 279.462 287.398 278.862 288.166 278.442C288.934 278.022 289.816 277.812 290.812 277.812C291.784 277.812 292.648 278.016 293.404 278.424C294.16 278.832 294.748 279.414 295.168 280.17C295.6 280.926 295.816 281.808 295.816 282.816ZM292.666 282.006C292.666 281.478 292.486 281.058 292.126 280.746C291.766 280.434 291.316 280.278 290.776 280.278C290.26 280.278 289.822 280.428 289.462 280.728C289.114 281.028 288.898 281.454 288.814 282.006H292.666ZM303.56 277.848C304.736 277.848 305.672 278.232 306.368 279C307.076 279.756 307.43 280.8 307.43 282.132V288H304.37V282.546C304.37 281.874 304.196 281.352 303.848 280.98C303.5 280.608 303.032 280.422 302.444 280.422C301.856 280.422 301.388 280.608 301.04 280.98C300.692 281.352 300.518 281.874 300.518 282.546V288H297.44V277.956H300.518V279.288C300.83 278.844 301.25 278.496 301.778 278.244C302.306 277.98 302.9 277.848 303.56 277.848ZM313.385 277.812C314.093 277.812 314.711 277.956 315.239 278.244C315.779 278.532 316.193 278.91 316.481 279.378V277.956H319.559V287.982C319.559 288.906 319.373 289.74 319.001 290.484C318.641 291.24 318.083 291.84 317.327 292.284C316.583 292.728 315.653 292.95 314.537 292.95C313.049 292.95 311.843 292.596 310.919 291.888C309.995 291.192 309.467 290.244 309.335 289.044H312.377C312.473 289.428 312.701 289.728 313.061 289.944C313.421 290.172 313.865 290.286 314.393 290.286C315.029 290.286 315.533 290.1 315.905 289.728C316.289 289.368 316.481 288.786 316.481 287.982V286.56C316.181 287.028 315.767 287.412 315.239 287.712C314.711 288 314.093 288.144 313.385 288.144C312.557 288.144 311.807 287.934 311.135 287.514C310.463 287.082 309.929 286.476 309.533 285.696C309.149 284.904 308.957 283.992 308.957 282.96C308.957 281.928 309.149 281.022 309.533 280.242C309.929 279.462 310.463 278.862 311.135 278.442C311.807 278.022 312.557 277.812 313.385 277.812ZM316.481 282.978C316.481 282.21 316.265 281.604 315.833 281.16C315.413 280.716 314.897 280.494 314.285 280.494C313.673 280.494 313.151 280.716 312.719 281.16C312.299 281.592 312.089 282.192 312.089 282.96C312.089 283.728 312.299 284.34 312.719 284.796C313.151 285.24 313.673 285.462 314.285 285.462C314.897 285.462 315.413 285.24 315.833 284.796C316.265 284.352 316.481 283.746 316.481 282.978ZM331.254 282.816C331.254 283.104 331.236 283.404 331.2 283.716H324.234C324.282 284.34 324.48 284.82 324.828 285.156C325.188 285.48 325.626 285.642 326.142 285.642C326.91 285.642 327.444 285.318 327.744 284.67H331.02C330.852 285.33 330.546 285.924 330.102 286.452C329.67 286.98 329.124 287.394 328.464 287.694C327.804 287.994 327.066 288.144 326.25 288.144C325.266 288.144 324.39 287.934 323.622 287.514C322.854 287.094 322.254 286.494 321.822 285.714C321.39 284.934 321.174 284.022 321.174 282.978C321.174 281.934 321.384 281.022 321.804 280.242C322.236 279.462 322.836 278.862 323.604 278.442C324.372 278.022 325.254 277.812 326.25 277.812C327.222 277.812 328.086 278.016 328.842 278.424C329.598 278.832 330.186 279.414 330.606 280.17C331.038 280.926 331.254 281.808 331.254 282.816ZM328.104 282.006C328.104 281.478 327.924 281.058 327.564 280.746C327.204 280.434 326.754 280.278 326.214 280.278C325.698 280.278 325.26 280.428 324.9 280.728C324.552 281.028 324.336 281.454 324.252 282.006H328.104ZM335.956 279.63C336.316 279.078 336.766 278.646 337.306 278.334C337.846 278.01 338.446 277.848 339.106 277.848V281.106H338.26C337.492 281.106 336.916 281.274 336.532 281.61C336.148 281.934 335.956 282.51 335.956 283.338V288H332.878V277.956H335.956V279.63ZM346.175 285.39V288H344.609C343.493 288 342.623 287.73 341.999 287.19C341.375 286.638 341.063 285.744 341.063 284.508V280.512H339.839V277.956H341.063V275.508H344.141V277.956H346.157V280.512H344.141V284.544C344.141 284.844 344.213 285.06 344.357 285.192C344.501 285.324 344.741 285.39 345.077 285.39H346.175ZM349.437 276.912C348.897 276.912 348.453 276.756 348.105 276.444C347.769 276.12 347.601 275.724 347.601 275.256C347.601 274.776 347.769 274.38 348.105 274.068C348.453 273.744 348.897 273.582 349.437 273.582C349.965 273.582 350.397 273.744 350.733 274.068C351.081 274.38 351.255 274.776 351.255 275.256C351.255 275.724 351.081 276.12 350.733 276.444C350.397 276.756 349.965 276.912 349.437 276.912ZM350.967 277.956V288H347.889V277.956H350.967ZM352.586 282.96C352.586 281.928 352.778 281.022 353.162 280.242C353.558 279.462 354.092 278.862 354.764 278.442C355.436 278.022 356.186 277.812 357.014 277.812C357.722 277.812 358.34 277.956 358.868 278.244C359.408 278.532 359.822 278.91 360.11 279.378V277.956H363.188V288H360.11V286.578C359.81 287.046 359.39 287.424 358.85 287.712C358.322 288 357.704 288.144 356.996 288.144C356.18 288.144 355.436 287.934 354.764 287.514C354.092 287.082 353.558 286.476 353.162 285.696C352.778 284.904 352.586 283.992 352.586 282.96ZM360.11 282.978C360.11 282.21 359.894 281.604 359.462 281.16C359.042 280.716 358.526 280.494 357.914 280.494C357.302 280.494 356.78 280.716 356.348 281.16C355.928 281.592 355.718 282.192 355.718 282.96C355.718 283.728 355.928 284.34 356.348 284.796C356.78 285.24 357.302 285.462 357.914 285.462C358.526 285.462 359.042 285.24 359.462 284.796C359.894 284.352 360.11 283.746 360.11 282.978ZM371.535 277.848C372.711 277.848 373.647 278.232 374.343 279C375.051 279.756 375.405 280.8 375.405 282.132V288H372.345V282.546C372.345 281.874 372.171 281.352 371.823 280.98C371.475 280.608 371.007 280.422 370.419 280.422C369.831 280.422 369.363 280.608 369.015 280.98C368.667 281.352 368.493 281.874 368.493 282.546V288H365.415V277.956H368.493V279.288C368.805 278.844 369.225 278.496 369.753 278.244C370.281 277.98 370.875 277.848 371.535 277.848ZM380.856 285.156L378.858 290.322H376.896L377.94 285.156H380.856ZM385.914 282.978C385.914 281.934 386.124 281.022 386.544 280.242C386.976 279.462 387.57 278.862 388.326 278.442C389.094 278.022 389.97 277.812 390.954 277.812C392.214 277.812 393.264 278.142 394.104 278.802C394.956 279.462 395.514 280.392 395.778 281.592H392.502C392.226 280.824 391.692 280.44 390.9 280.44C390.336 280.44 389.886 280.662 389.55 281.106C389.214 281.538 389.046 282.162 389.046 282.978C389.046 283.794 389.214 284.424 389.55 284.868C389.886 285.3 390.336 285.516 390.9 285.516C391.692 285.516 392.226 285.132 392.502 284.364H395.778C395.514 285.54 394.956 286.464 394.104 287.136C393.252 287.808 392.202 288.144 390.954 288.144C389.97 288.144 389.094 287.934 388.326 287.514C387.57 287.094 386.976 286.494 386.544 285.714C386.124 284.934 385.914 284.022 385.914 282.978ZM401.997 288.144C401.013 288.144 400.125 287.934 399.333 287.514C398.553 287.094 397.935 286.494 397.479 285.714C397.035 284.934 396.813 284.022 396.813 282.978C396.813 281.946 397.041 281.04 397.497 280.26C397.953 279.468 398.577 278.862 399.369 278.442C400.161 278.022 401.049 277.812 402.033 277.812C403.017 277.812 403.905 278.022 404.697 278.442C405.489 278.862 406.113 279.468 406.569 280.26C407.025 281.04 407.253 281.946 407.253 282.978C407.253 284.01 407.019 284.922 406.551 285.714C406.095 286.494 405.465 287.094 404.661 287.514C403.869 287.934 402.981 288.144 401.997 288.144ZM401.997 285.48C402.585 285.48 403.083 285.264 403.491 284.832C403.911 284.4 404.121 283.782 404.121 282.978C404.121 282.174 403.917 281.556 403.509 281.124C403.113 280.692 402.621 280.476 402.033 280.476C401.433 280.476 400.935 280.692 400.539 281.124C400.143 281.544 399.945 282.162 399.945 282.978C399.945 283.782 400.137 284.4 400.521 284.832C400.917 285.264 401.409 285.48 401.997 285.48ZM415.006 277.848C416.182 277.848 417.118 278.232 417.814 279C418.522 279.756 418.876 280.8 418.876 282.132V288H415.816V282.546C415.816 281.874 415.642 281.352 415.294 280.98C414.946 280.608 414.478 280.422 413.89 280.422C413.302 280.422 412.834 280.608 412.486 280.98C412.138 281.352 411.964 281.874 411.964 282.546V288H408.886V277.956H411.964V279.288C412.276 278.844 412.696 278.496 413.224 278.244C413.752 277.98 414.346 277.848 415.006 277.848ZM426.612 285.39V288H425.046C423.93 288 423.06 287.73 422.436 287.19C421.812 286.638 421.5 285.744 421.5 284.508V280.512H420.276V277.956H421.5V275.508H424.578V277.956H426.594V280.512H424.578V284.544C424.578 284.844 424.65 285.06 424.794 285.192C424.938 285.324 425.178 285.39 425.514 285.39H426.612ZM432.899 288.144C431.915 288.144 431.027 287.934 430.235 287.514C429.455 287.094 428.837 286.494 428.381 285.714C427.937 284.934 427.715 284.022 427.715 282.978C427.715 281.946 427.943 281.04 428.399 280.26C428.855 279.468 429.479 278.862 430.271 278.442C431.063 278.022 431.951 277.812 432.935 277.812C433.919 277.812 434.807 278.022 435.599 278.442C436.391 278.862 437.015 279.468 437.471 280.26C437.927 281.04 438.155 281.946 438.155 282.978C438.155 284.01 437.921 284.922 437.453 285.714C436.997 286.494 436.367 287.094 435.563 287.514C434.771 287.934 433.883 288.144 432.899 288.144ZM432.899 285.48C433.487 285.48 433.985 285.264 434.393 284.832C434.813 284.4 435.023 283.782 435.023 282.978C435.023 282.174 434.819 281.556 434.411 281.124C434.015 280.692 433.523 280.476 432.935 280.476C432.335 280.476 431.837 280.692 431.441 281.124C431.045 281.544 430.847 282.162 430.847 282.978C430.847 283.782 431.039 284.4 431.423 284.832C431.819 285.264 432.311 285.48 432.899 285.48ZM445.962 277.848C447.114 277.848 448.038 278.232 448.734 279C449.43 279.756 449.778 280.8 449.778 282.132V288H446.718V282.546C446.718 281.874 446.544 281.352 446.196 280.98C445.848 280.608 445.38 280.422 444.792 280.422C444.204 280.422 443.736 280.608 443.388 280.98C443.04 281.352 442.866 281.874 442.866 282.546V288H439.788V274.68H442.866V279.306C443.178 278.862 443.604 278.508 444.144 278.244C444.684 277.98 445.29 277.848 445.962 277.848ZM455.229 285.156L453.231 290.322H451.269L452.313 285.156H455.229ZM464.985 288.144C464.109 288.144 463.329 287.994 462.645 287.694C461.961 287.394 461.421 286.986 461.025 286.47C460.629 285.942 460.407 285.354 460.359 284.706H463.401C463.437 285.054 463.599 285.336 463.887 285.552C464.175 285.768 464.529 285.876 464.949 285.876C465.333 285.876 465.627 285.804 465.831 285.66C466.047 285.504 466.155 285.306 466.155 285.066C466.155 284.778 466.005 284.568 465.705 284.436C465.405 284.292 464.919 284.136 464.247 283.968C463.527 283.8 462.927 283.626 462.447 283.446C461.967 283.254 461.553 282.96 461.205 282.564C460.857 282.156 460.683 281.61 460.683 280.926C460.683 280.35 460.839 279.828 461.151 279.36C461.475 278.88 461.943 278.502 462.555 278.226C463.179 277.95 463.917 277.812 464.769 277.812C466.029 277.812 467.019 278.124 467.739 278.748C468.471 279.372 468.891 280.2 468.999 281.232H466.155C466.107 280.884 465.951 280.608 465.687 280.404C465.435 280.2 465.099 280.098 464.679 280.098C464.319 280.098 464.043 280.17 463.851 280.314C463.659 280.446 463.563 280.632 463.563 280.872C463.563 281.16 463.713 281.376 464.013 281.52C464.325 281.664 464.805 281.808 465.453 281.952C466.197 282.144 466.803 282.336 467.271 282.528C467.739 282.708 468.147 283.008 468.495 283.428C468.855 283.836 469.041 284.388 469.053 285.084C469.053 285.672 468.885 286.2 468.549 286.668C468.225 287.124 467.751 287.484 467.127 287.748C466.515 288.012 465.801 288.144 464.985 288.144ZM480.404 282.816C480.404 283.104 480.386 283.404 480.35 283.716H473.384C473.432 284.34 473.63 284.82 473.978 285.156C474.338 285.48 474.776 285.642 475.292 285.642C476.06 285.642 476.594 285.318 476.894 284.67H480.17C480.002 285.33 479.696 285.924 479.252 286.452C478.82 286.98 478.274 287.394 477.614 287.694C476.954 287.994 476.216 288.144 475.4 288.144C474.416 288.144 473.54 287.934 472.772 287.514C472.004 287.094 471.404 286.494 470.972 285.714C470.54 284.934 470.324 284.022 470.324 282.978C470.324 281.934 470.534 281.022 470.954 280.242C471.386 279.462 471.986 278.862 472.754 278.442C473.522 278.022 474.404 277.812 475.4 277.812C476.372 277.812 477.236 278.016 477.992 278.424C478.748 278.832 479.336 279.414 479.756 280.17C480.188 280.926 480.404 281.808 480.404 282.816ZM477.254 282.006C477.254 281.478 477.074 281.058 476.714 280.746C476.354 280.434 475.904 280.278 475.364 280.278C474.848 280.278 474.41 280.428 474.05 280.728C473.702 281.028 473.486 281.454 473.402 282.006H477.254ZM485.106 279.63C485.466 279.078 485.916 278.646 486.456 278.334C486.996 278.01 487.596 277.848 488.256 277.848V281.106H487.41C486.642 281.106 486.066 281.274 485.682 281.61C485.298 281.934 485.106 282.51 485.106 283.338V288H482.028V277.956H485.106V279.63ZM495.325 285.39V288H493.759C492.643 288 491.773 287.73 491.149 287.19C490.525 286.638 490.213 285.744 490.213 284.508V280.512H488.989V277.956H490.213V275.508H493.291V277.956H495.307V280.512H493.291V284.544C493.291 284.844 493.363 285.06 493.507 285.192C493.651 285.324 493.891 285.39 494.227 285.39H495.325ZM496.428 282.96C496.428 281.928 496.62 281.022 497.004 280.242C497.4 279.462 497.934 278.862 498.606 278.442C499.278 278.022 500.028 277.812 500.856 277.812C501.564 277.812 502.182 277.956 502.71 278.244C503.25 278.532 503.664 278.91 503.952 279.378V277.956H507.03V288H503.952V286.578C503.652 287.046 503.232 287.424 502.692 287.712C502.164 288 501.546 288.144 500.838 288.144C500.022 288.144 499.278 287.934 498.606 287.514C497.934 287.082 497.4 286.476 497.004 285.696C496.62 284.904 496.428 283.992 496.428 282.96ZM503.952 282.978C503.952 282.21 503.736 281.604 503.304 281.16C502.884 280.716 502.368 280.494 501.756 280.494C501.144 280.494 500.622 280.716 500.19 281.16C499.77 281.592 499.56 282.192 499.56 282.96C499.56 283.728 499.77 284.34 500.19 284.796C500.622 285.24 501.144 285.462 501.756 285.462C502.368 285.462 502.884 285.24 503.304 284.796C503.736 284.352 503.952 283.746 503.952 282.978ZM512.459 282.96C512.459 281.928 512.651 281.022 513.035 280.242C513.431 279.462 513.965 278.862 514.637 278.442C515.309 278.022 516.059 277.812 516.887 277.812C517.595 277.812 518.213 277.956 518.741 278.244C519.281 278.532 519.695 278.91 519.983 279.378V277.956H523.061V288H519.983V286.578C519.683 287.046 519.263 287.424 518.723 287.712C518.195 288 517.577 288.144 516.869 288.144C516.053 288.144 515.309 287.934 514.637 287.514C513.965 287.082 513.431 286.476 513.035 285.696C512.651 284.904 512.459 283.992 512.459 282.96ZM519.983 282.978C519.983 282.21 519.767 281.604 519.335 281.16C518.915 280.716 518.399 280.494 517.787 280.494C517.175 280.494 516.653 280.716 516.221 281.16C515.801 281.592 515.591 282.192 515.591 282.96C515.591 283.728 515.801 284.34 516.221 284.796C516.653 285.24 517.175 285.462 517.787 285.462C518.399 285.462 518.915 285.24 519.335 284.796C519.767 284.352 519.983 283.746 519.983 282.978ZM531.408 277.848C532.584 277.848 533.52 278.232 534.216 279C534.924 279.756 535.278 280.8 535.278 282.132V288H532.218V282.546C532.218 281.874 532.044 281.352 531.696 280.98C531.348 280.608 530.88 280.422 530.292 280.422C529.704 280.422 529.236 280.608 528.888 280.98C528.54 281.352 528.366 281.874 528.366 282.546V288H525.288V277.956H528.366V279.288C528.678 278.844 529.098 278.496 529.626 278.244C530.154 277.98 530.748 277.848 531.408 277.848ZM536.805 282.96C536.805 281.928 536.997 281.022 537.381 280.242C537.777 279.462 538.311 278.862 538.983 278.442C539.655 278.022 540.405 277.812 541.233 277.812C541.941 277.812 542.559 277.956 543.087 278.244C543.627 278.532 544.041 278.91 544.329 279.378V277.956H547.407V288H544.329V286.578C544.029 287.046 543.609 287.424 543.069 287.712C542.541 288 541.923 288.144 541.215 288.144C540.399 288.144 539.655 287.934 538.983 287.514C538.311 287.082 537.777 286.476 537.381 285.696C536.997 284.904 536.805 283.992 536.805 282.96ZM544.329 282.978C544.329 282.21 544.113 281.604 543.681 281.16C543.261 280.716 542.745 280.494 542.133 280.494C541.521 280.494 540.999 280.716 540.567 281.16C540.147 281.592 539.937 282.192 539.937 282.96C539.937 283.728 540.147 284.34 540.567 284.796C540.999 285.24 541.521 285.462 542.133 285.462C542.745 285.462 543.261 285.24 543.681 284.796C544.113 284.352 544.329 283.746 544.329 282.978ZM552.712 274.68V288H549.634V274.68H552.712ZM559.514 288.144C558.53 288.144 557.642 287.934 556.85 287.514C556.07 287.094 555.452 286.494 554.996 285.714C554.552 284.934 554.33 284.022 554.33 282.978C554.33 281.946 554.558 281.04 555.014 280.26C555.47 279.468 556.094 278.862 556.886 278.442C557.678 278.022 558.566 277.812 559.55 277.812C560.534 277.812 561.422 278.022 562.214 278.442C563.006 278.862 563.63 279.468 564.086 280.26C564.542 281.04 564.77 281.946 564.77 282.978C564.77 284.01 564.536 284.922 564.068 285.714C563.612 286.494 562.982 287.094 562.178 287.514C561.386 287.934 560.498 288.144 559.514 288.144ZM559.514 285.48C560.102 285.48 560.6 285.264 561.008 284.832C561.428 284.4 561.638 283.782 561.638 282.978C561.638 282.174 561.434 281.556 561.026 281.124C560.63 280.692 560.138 280.476 559.55 280.476C558.95 280.476 558.452 280.692 558.056 281.124C557.66 281.544 557.462 282.162 557.462 282.978C557.462 283.782 557.654 284.4 558.038 284.832C558.434 285.264 558.926 285.48 559.514 285.48ZM570.219 277.812C570.927 277.812 571.545 277.956 572.073 278.244C572.613 278.532 573.027 278.91 573.315 279.378V277.956H576.393V287.982C576.393 288.906 576.207 289.74 575.835 290.484C575.475 291.24 574.917 291.84 574.161 292.284C573.417 292.728 572.487 292.95 571.371 292.95C569.883 292.95 568.677 292.596 567.753 291.888C566.829 291.192 566.301 290.244 566.169 289.044H569.211C569.307 289.428 569.535 289.728 569.895 289.944C570.255 290.172 570.699 290.286 571.227 290.286C571.863 290.286 572.367 290.1 572.739 289.728C573.123 289.368 573.315 288.786 573.315 287.982V286.56C573.015 287.028 572.601 287.412 572.073 287.712C571.545 288 570.927 288.144 570.219 288.144C569.391 288.144 568.641 287.934 567.969 287.514C567.297 287.082 566.763 286.476 566.367 285.696C565.983 284.904 565.791 283.992 565.791 282.96C565.791 281.928 565.983 281.022 566.367 280.242C566.763 279.462 567.297 278.862 567.969 278.442C568.641 278.022 569.391 277.812 570.219 277.812ZM573.315 282.978C573.315 282.21 573.099 281.604 572.667 281.16C572.247 280.716 571.731 280.494 571.119 280.494C570.507 280.494 569.985 280.716 569.553 281.16C569.133 281.592 568.923 282.192 568.923 282.96C568.923 283.728 569.133 284.34 569.553 284.796C569.985 285.24 570.507 285.462 571.119 285.462C571.731 285.462 572.247 285.24 572.667 284.796C573.099 284.352 573.315 283.746 573.315 282.978ZM580.168 276.912C579.628 276.912 579.184 276.756 578.836 276.444C578.5 276.12 578.332 275.724 578.332 275.256C578.332 274.776 578.5 274.38 578.836 274.068C579.184 273.744 579.628 273.582 580.168 273.582C580.696 273.582 581.128 273.744 581.464 274.068C581.812 274.38 581.986 274.776 581.986 275.256C581.986 275.724 581.812 276.12 581.464 276.444C581.128 276.756 580.696 276.912 580.168 276.912ZM581.698 277.956V288H578.62V277.956H581.698Z" fill="white"/>
<ellipse cx="88" cy="236.5" rx="79" ry="207.5" fill="url(#paint0_linear_102:8)"/>
<defs>
<linearGradient id="paint0_linear_102:8" x1="88" y1="29" x2="88" y2="444" gradientUnits="userSpaceOnUse">
<stop stop-color="#FF9F47"/>
<stop offset="1" stop-color="#C4C4C4" stop-opacity="0"/>
</linearGradient>
</defs>
</svg>
